<?xml version="1.0" encoding="utf-8"?>
<!-- Generator: Adobe Illustrator 20.1.0, SVG Export Plug-In . SVG Version: 6.00 Build 0)  -->
<svg version="1.1" id="Layer_1" xmlns="http://www.w3.org/2000/svg" xmlns:xlink="http://www.w3.org/1999/xlink" x="0px" y="0px"
	 viewBox="0 0 256 256" style="enable-background:new 0 0 256 256;" xml:space="preserve">
<style type="text/css">
	.st0{fill:#81A1F2;}
	.st1{fill:#87ADF6;}
	.st2{fill:none;stroke:#FFFFFF;stroke-width:4;stroke-linecap:round;stroke-linejoin:round;stroke-miterlimit:10;}
	.st3{fill:none;stroke:#FFFFFF;stroke-width:2;stroke-linecap:round;stroke-linejoin:round;stroke-miterlimit:10;}
	.st4{fill:none;stroke:#FFFFFF;stroke-width:4;stroke-linecap:square;stroke-linejoin:round;stroke-miterlimit:10;}
	.st5{clip-path:url(#SVGID_2_);}
	.st6{fill:#CE97FF;}
	.st7{clip-path:url(#SVGID_4_);}
	.st8{fill:#6ECCED;}
	.st9{fill:#FFFFFF;}
	.st10{fill:#66E2A7;}
	.st11{fill:#CBCE4D;}
	.st12{fill:#F4A44D;}
	.st13{clip-path:url(#SVGID_6_);}
	.st14{fill:#F76969;}
	.st15{clip-path:url(#SVGID_8_);}
</style>
<g>
	<circle class="st0" cx="128" cy="128" r="128"/>
</g>
<g>
	<path class="st9" d="M170.3,84.1c0.2,0.3,0.5,0.4,0.8,0.4c0.2,0,0.4-0.1,0.6-0.2c0.5-0.3,0.6-0.9,0.3-1.4c-1.8-2.7-3.9-5.2-6.2-7.4
		c-0.4-0.4-1-0.4-1.4,0c-0.4,0.4-0.4,1,0,1.4C166.6,79.2,168.6,81.6,170.3,84.1z"/>
	<path class="st9" d="M158,71.5c0.3,0,0.6-0.2,0.8-0.4c0.3-0.5,0.2-1.1-0.3-1.4c-8.3-5.6-18-8.6-28-8.6c-0.6,0-1,0.4-1,1s0.4,1,1,1
		c9.7,0,19,2.8,26.9,8.2C157.6,71.4,157.8,71.5,158,71.5z"/>
	<path class="st9" d="M141.8,135.6h16.9c0.6,0,1-0.4,1-1s-0.4-1-1-1h-16.9c-0.6,0-1,0.4-1,1S141.3,135.6,141.8,135.6z"/>
	<path class="st9" d="M146.7,140.4h-4.9c-0.6,0-1,0.4-1,1s0.4,1,1,1h4.9c0.6,0,1-0.4,1-1S147.3,140.4,146.7,140.4z"/>
	<path class="st9" d="M138.3,140.4h-11.7c-0.6,0-1,0.4-1,1s0.4,1,1,1h11.7c0.6,0,1-0.4,1-1S138.8,140.4,138.3,140.4z"/>
	<path class="st9" d="M162.8,135.6h6.1c0.6,0,1-0.4,1-1s-0.4-1-1-1h-6.1c-0.6,0-1,0.4-1,1S162.2,135.6,162.8,135.6z"/>
	<path class="st9" d="M213.9,114.4h-10.2c-0.6,0-1,0.4-1,1s0.4,1,1,1h10.2c0.6,0,1-0.4,1-1S214.5,114.4,213.9,114.4z"/>
	<path class="st9" d="M200.3,102.3c0.1,0,0.3,0,0.4-0.1l9.7-4.8c0.5-0.2,0.7-0.8,0.4-1.3s-0.8-0.7-1.3-0.4l-9.7,4.8
		c-0.5,0.2-0.7,0.8-0.4,1.3C199.6,102.1,200,102.3,200.3,102.3z"/>
	<path class="st9" d="M210.5,133.1l-9.7-4.8c-0.5-0.2-1.1,0-1.3,0.4c-0.2,0.5,0,1.1,0.4,1.3l9.7,4.8c0.1,0.1,0.3,0.1,0.4,0.1
		c0.4,0,0.7-0.2,0.9-0.6C211.2,134,211,133.4,210.5,133.1z"/>
	<path class="st9" d="M193.6,114.4c0-35.4-28.8-64.2-64.2-64.2c-9,0-17.6,1.9-25.3,5.2l-1.7-4c8.3-3.6,17.4-5.6,27-5.6
		c1.1,0,2-0.9,2-2s-0.9-2-2-2c-10.1,0-19.8,2.1-28.6,5.9l-0.5-1.2c-0.2-0.5-0.8-0.7-1.3-0.5c-0.5,0.2-0.7,0.8-0.5,1.3l0.5,1.2
		c-24.8,11.5-42.1,36.7-42.1,65.8c0,37.8,29.1,68.9,66,72.2v10.9h-17.8c-4.2,0-7.7,3.4-7.7,7.7s3.4,7.7,7.7,7.7h48.4
		c4.2,0,7.7-3.4,7.7-7.7s-3.4-7.7-7.7-7.7h-17.8v-10.9c6.7-0.6,13.3-2.1,19.5-4.5l1.2,2.7c0.2,0.4,0.5,0.6,0.9,0.6
		c0.1,0,0.3,0,0.4-0.1c0.5-0.2,0.7-0.8,0.5-1.3l-1.1-2.7c8-3.3,15.4-8.1,21.9-14.2c0.8-0.8,0.8-2,0.1-2.8c-0.8-0.8-2-0.8-2.8-0.1
		c-6.1,5.8-13.1,10.3-20.7,13.4l-1.7-4C177.3,164,193.6,141.1,193.6,114.4z M189.6,114.4c0,3.1-0.2,6.2-0.7,9.2h-8.4
		c-2,0-3.6-1.6-3.6-3.6c0-3.3-2.7-6.1-6.1-6.1h-15.6c-2.2,0-4-1.8-4-4s1.8-4,4-4c2.8,0,5.1-2.3,5.1-5.1c0-1.8,1.4-3.2,3.2-3.2h13.1
		c1.3,0,2.4,1.1,2.4,2.4c0,2.6,2.1,4.8,4.8,4.8h5.1C189.4,107.9,189.6,111.1,189.6,114.4z M60.9,114.4c0-27.5,16.3-51.2,39.7-62.1
		l1.7,4c-21.8,10.2-37,32.4-37,58.1c0,33.2,25.4,60.6,57.7,63.9v4.3C88.2,179.3,60.9,150,60.9,114.4z M130.5,100.1
		c-0.7,0.7-1.6,1.3-2.6,1.7c-0.4,0.2-0.8,0.4-1.1,0.6l-15.3-28.2c3.3,0.6,5.9,3.3,6.4,6.7l0,0.1c0.4,2.8,2.5,5.1,5.3,5.6
		L130.5,100.1z M125.5,86.7c3.5,0.3,6.4,2.8,7.1,6c0.4,2,0.1,3.9-0.8,5.6L125.5,86.7z M125.3,103.7c-0.4,0.5-0.8,1.1-1,1.8
		c-0.4,1-0.9,1.9-1.6,2.6l-18.5-34.1h5.1L125.3,103.7z M121,109.4c-1.2,0.8-2.6,1.2-4.1,1.2L97,74.1h4.8L121,109.4z M114.5,110.3
		c-2.2-0.7-4-2.3-4.9-4.5c-0.7-1.7-2.3-2.9-4.1-3.4L90,74.1h4.8L114.5,110.3z M103.1,102.3h-4.7c0,0-0.1,0-0.1,0L83.6,75.4
		c0.4-0.5,0.8-0.9,1.2-1.3h2.9L103.1,102.3z M89.4,90.8c-0.6-0.7-1.4-1.1-2.3-1.1h-2.7l-4.8-8.9c0.9-1.3,1.8-2.5,2.7-3.7l13.5,24.9
		c-3-0.9-5.3-3.4-5.7-6.4c-0.1-0.7-0.1-1.4,0-2.1C90.3,92.4,90,91.5,89.4,90.8z M82.1,89.7c-2.4-0.3-4.4-1.6-5.7-3.6
		c0.6-1.1,1.2-2.2,1.9-3.3L82.1,89.7z M69.6,120.5h19c2,0,3.6,1.6,3.6,3.6c0,2.5,2.1,4.6,4.6,4.6h6.7c2.4,0,4.4,2,4.4,4.4
		c0,2.4-2,4.4-4.4,4.4c-3.2,0-5.9,2.6-5.9,5.9v3.5c0,3.5-2.9,6.4-6.4,6.4h-0.3c-2.1,0-3.8,1.2-4.6,3C77.1,146.8,71,134.3,69.6,120.5
		z M153.7,201.5c2,0,3.7,1.6,3.7,3.7s-1.6,3.7-3.7,3.7h-48.4c-2,0-3.7-1.6-3.7-3.7s1.6-3.7,3.7-3.7H123h4h4.9h4H153.7z M127,197.5
		v-10.7c0.8,0,1.6,0.1,2.5,0.1c0.8,0,1.6,0,2.5-0.1v10.7H127z M127,182.8v-4.3c0.8,0,1.6,0.1,2.5,0.1s1.6,0,2.5-0.1v4.3
		c-0.8,0-1.6,0.1-2.5,0.1C128.6,182.9,127.8,182.8,127,182.8z M135.9,182.6v-4.3c5.7-0.6,11.1-1.9,16.3-3.8l1.7,4
		C148.1,180.6,142.1,182,135.9,182.6z M129.5,174.6c-16.1,0-30.7-6.4-41.5-16.7c0.3-1.4,1.5-2.6,3-2.6h0.3c4.6,0,8.4-3.8,8.4-8.4
		v-3.5c0-2.1,1.7-3.9,3.9-3.9c3.5,0,6.4-2.9,6.4-6.4s-2.9-6.4-6.4-6.4h-6.7c-1.4,0-2.6-1.2-2.6-2.6c0-3.1-2.5-5.6-5.6-5.6H69.4
		c-0.1-1.4-0.2-2.7-0.2-4.1c0-9.4,2.2-18.4,6.1-26.3c1.8,2.3,4.6,3.7,7.6,3.7h4.1c0.3,0,0.6,0.1,0.8,0.4c0.2,0.3,0.3,0.6,0.3,1
		c-0.1,0.9-0.1,1.8,0,2.7c0.7,4.9,5.1,8.6,10.2,8.6h5.7c1.6,0,3.1,0.9,3.7,2.3c1.5,3.7,5.1,6.1,9.1,6.1c4.1,0,7.9-2.6,9.3-6.5
		c0.4-1.2,1.3-2.1,2.6-2.6c4.5-1.8,7-6.5,5.9-11.3c-1-4.4-5.1-7.6-9.9-7.6h-0.4c-2.2,0-4.2-1.7-4.4-3.9l0-0.1
		c-0.6-4.9-4.8-8.6-9.7-8.6H86.7c10.9-11,26-17.9,42.7-17.9c29.2,0,53.6,20.9,59.1,48.6h-4.8c-1.5,0-2.8-1.2-2.8-2.8
		c0-2.4-2-4.4-4.4-4.4h-13.1c-2.9,0-5.2,2.3-5.2,5.2c0,1.7-1.4,3.1-3.1,3.1c-3.3,0-6,2.7-6,6s2.7,6,6,6h15.6c2.2,0,4.1,1.8,4.1,4.1
		c0,3.1,2.5,5.6,5.6,5.6h8.1c-1.5,8.1-4.7,15.6-9.1,22.2h-29.3c-0.6,0-1,0.4-1,1s0.4,1,1,1h27.9
		C167.1,164.8,149.4,174.6,129.5,174.6z"/>
</g>
</svg>
